# xmcd
#
# Track frame offsets:
#	150
#	8442
#	20750
#	26857
#	31145
#	36920
#	43105
#	49130
#	55707
#	63247
#	69947
#	76212
#	80302
#	88432
#	95050
#	101685
#	107762
#	113682
#	120327
#	129367
#	136445
#	147120
#	153855
#	160457
#	167370
#	173335
#	179572
#	186235
#	192675
#	198420
#	206670
#	212870
#
# Disc length: 2919 seconds
#
# Revision: 1
# Processed by: cddbd v1.5.1PL0 Copyright (c) Steve Scherf et al.
# Submitted via: CDex 1.50Beta5
#
DISCID=b80b6520
DTITLE=TVサントラ - ストリートファイターII V
DYEAR=1995
DGENRE=
TTITLE0=リュウ&ケンのテーマ
TTITLE1=老杣人の慈愛
TTITLE2=溢れる好奇心
TTITLE3=リュウだってたまには…
TTITLE4=暖かき流れ
TTITLE5=幼き日への想い
TTITLE6=酒場の乱闘
TTITLE7=焦燥
TTITLE8=気ままな散策
TTITLE9=旅立ち
TTITLE10=ケンの甘いかほリ
TTITLE11=お調子者
TTITLE12=天空を駈ける激闘
TTITLE13=乙女の祈り
TTITLE14=遥かインドの地は遠く
TTITLE15=カルチャー・ショック
TTITLE16=聖者ダルシム
TTITLE17=真理の探求
TTITLE18=達磨大師の伝説
TTITLE19=波動拳誕生
TTITLE20=聖者ダルシムとの別れ
TTITLE21=師弟の絆
TTITLE22=スペインの街の昂揚
TTITLE23=マタドールの華麗な剣さばき
TTITLE24=ルナティック・バルログ
TTITLE25=ケン危機一髪
TTITLE26=血に魅せられた麗人
TTITLE27=幽玄と緊張
TTITLE28=壮絶なる死闘
TTITLE29=巨魁ベガ
TTITLE30=恐怖と勇気
TTITLE31=波動vsサイコパワー
EXTD=
EXTT0=
EXTT1=
EXTT2=
EXTT3=
EXTT4=
EXTT5=
EXTT6=
EXTT7=
EXTT8=
EXTT9=
EXTT10=
EXTT11=
EXTT12=
EXTT13=
EXTT14=
EXTT15=
EXTT16=
EXTT17=
EXTT18=
EXTT19=
EXTT20=
EXTT21=
EXTT22=
EXTT23=
EXTT24=
EXTT25=
EXTT26=
EXTT27=
EXTT28=
EXTT29=
EXTT30=
EXTT31=
PLAYORDER=
